<svg xmlns="http://www.w3.org/2000/svg" width="512" height="512" viewBox="0 0 512 512">
  <rect width="512" height="512" rx="96" fill="#1E88E5"/>

  <!-- Shelf -->
  <rect x="120" y="140" width="272" height="12" fill="#6D4C41"/>
  <rect x="120" y="240" width="272" height="12" fill="#6D4C41"/>
  <rect x="120" y="340" width="272" height="12" fill="#6D4C41"/>

  <!-- Side supports -->
  <rect x="100" y="120" width="16" height="260" fill="#5D4037"/>
  <rect x="396" y="120" width="16" height="260" fill="#5D4037"/>

  <!-- Top items -->
  <rect x="140" y="90" width="60" height="60" rx="8" fill="#FFFFFF"/>
  <rect x="140" y="90" width="60" height="18" fill="#1565C0"/>

  <rect x="220" y="100" width="80" height="50" rx="10" fill="#E53935"/>
  <rect x="220" y="92" width="80" height="16" rx="8" fill="#B71C1C"/>

  <rect x="320" y="102" width="50" height="48" rx="6" fill="#90A4AE"/>

  <!-- Middle items -->
  <path d="M150 290 L220 290 L200 250 L170 250 Z" fill="#FB8C00"/>
  <rect x="185" y="238" width="14" height="18" rx="4" fill="#43A047"/>

  <path d="M250 250 h50 a10 10 0 0 1 10 10 v20 a10 10 0 0 1 -10 10 h-50 z" fill="#FDD835"/>
  <circle cx="275" cy="272" r="6" fill="#F9A825"/>
  <circle cx="295" cy="260" r="5" fill="#F9A825"/>

  <!-- Bottom items -->
  <rect x="140" y="310" width="110" height="40" rx="20" fill="#BF6D2A"/>
  <path d="M165 320 q10 -10 20 0" stroke="#F5DEB3" stroke-width="4" fill="none"/>
  <path d="M195 320 q10 -10 20 0" stroke="#F5DEB3" stroke-width="4" fill="none"/>

  <ellipse cx="290" cy="330" rx="18" ry="24" fill="#FFE0B2"/>
  <ellipse cx="330" cy="330" rx="18" ry="24" fill="#FFE0B2"/>
  <ellipse cx="370" cy="330" rx="18" ry="24" fill="#FFE0B2"/>
</svg>
